<?xml version="1.0" standalone="no"?>
<!DOCTYPE svg PUBLIC "-//W3C//DTD SVG 20010904//EN"
 "http://www.w3.org/TR/2001/REC-SVG-20010904/DTD/svg10.dtd">
<svg version="1.0" xmlns="http://www.w3.org/2000/svg"
 width="700.000000pt" height="700.000000pt" viewBox="0 0 700.000000 700.000000"
 preserveAspectRatio="xMidYMid meet">
<metadata>
Created by potrace 1.11, written by Peter Selinger 2001-2013
</metadata>
<g transform="translate(0.000000,700.000000) scale(0.100000,-0.100000)"
fill="#000000" stroke="none">
<path d="M3475 6849 c-107 -13 -131 -18 -215 -45 -110 -34 -199 -77 -287 -137
l-72 -49 -73 25 c-130 44 -319 63 -433 45 -27 -4 -70 -11 -95 -14 -60 -8 -211
-59 -285 -96 -171 -86 -331 -224 -427 -369 -29 -43 -58 -79 -64 -79 -25 0
-170 -54 -237 -88 -155 -78 -311 -208 -422 -352 -45 -58 -145 -227 -145 -245
0 -5 -6 -21 -13 -35 -30 -57 -66 -223 -67 -305 0 -38 -3 -43 -52 -73 -229
-139 -392 -395 -401 -627 -2 -33 -5 -64 -8 -70 -57 -97 -121 -239 -135 -302
-34 -151 -42 -226 -39 -348 3 -112 9 -155 40 -280 2 -11 8 -25 43 -110 13 -33
26 -86 28 -120 23 -386 204 -678 493 -795 63 -26 161 -48 184 -42 5 1 6 -2 2
-7 -7 -12 -7 -196 0 -236 24 -129 79 -263 147 -357 43 -60 129 -150 177 -186
20 -15 38 -29 41 -32 13 -13 92 -61 149 -89 129 -66 276 -108 436 -126 59 -7
247 -7 295 0 86 11 121 18 167 30 51 12 53 12 67 -11 28 -41 98 -75 167 -78
34 -2 74 0 89 4 l27 8 0 -312 c0 -370 -4 -354 124 -490 238 -253 293 -305 328
-310 41 -6 88 12 116 44 22 25 22 9 29 585 2 176 7 336 10 355 41 222 71 326
132 450 69 142 156 244 277 324 145 96 220 245 234 466 3 52 7 96 8 98 1 2 27
-8 56 -21 84 -38 192 -69 314 -91 129 -24 366 -24 486 -1 13 3 51 10 84 16 94
16 251 60 320 90 219 92 331 166 461 300 79 84 114 131 172 239 50 93 104 249
118 340 3 19 9 38 12 42 4 4 51 8 105 9 338 6 620 191 711 466 13 38 26 57 49
71 75 44 217 202 217 241 0 6 4 11 8 11 5 0 22 42 38 93 25 79 29 108 28 202
0 106 -7 164 -23 209 -5 11 -2 42 6 71 21 73 25 276 7 360 -46 223 -146 407
-309 570 -87 88 -188 163 -277 206 -31 15 -55 38 -81 77 -76 116 -207 248
-329 330 -156 105 -351 175 -513 185 -41 2 -64 13 -130 56 -351 232 -870 328
-1285 237 -13 -3 -49 3 -79 15 -47 17 -110 34 -206 55 -37 8 -240 10 -300 3z"/>
</g>
</svg>
